{
  "accessors": [
    {
      "bufferView": 2,
      "componentType": 5126,
      "count": 5501,
      "max": [
        91.67376708984375,
        18.000560760498047,
        58.79694747924805
      ],
      "min": [
        42.31003952026367,
        -29.610740661621094,
        32.75156021118164
      ],
      "type": "VEC3"
    },
    {
      "bufferView": 2,
      "byteOffset": 66012,
      "componentType": 5126,
      "count": 5501,
      "max": [
        0.999976396560669,
        0.9999508261680603,
        0.9982606768608093
      ],
      "min": [
        -0.9997138381004333,
        -0.9999494552612305,
        -0.9990689754486084
      ],
      "type": "VEC3"
    },
    {
      "bufferView": 1,
      "componentType": 5126,
      "count": 5501,
      "max": [
        1.0000079870224,
        1.0000139474868774
      ],
      "min": [
        -7.999999979801942e-06,
        -2.2000000171829015e-05
      ],
      "type": "VEC2"
    },
    {
      "bufferView": 0,
      "componentType": 5125,
      "count": 10584,
      "type": "SCALAR"
    },
    {
      "bufferView": 2,
      "byteOffset": 132024,
      "componentType": 5126,
      "count": 18964,
      "max": [
        119.70548248291016,
        40.382381439208984,
        101.95831298828125
      ],
      "min": [
        -119.70548248291016,
        -40.382381439208984,
        -101.95829772949219
      ],
      "type": "VEC3"
    },
    {
      "bufferView": 2,
      "byteOffset": 359592,
      "componentType": 5126,
      "count": 18964,
      "max": [
        0.9999545812606812,
        0.9999560713768005,
        0.9999982118606567
      ],
      "min": [
        -0.9999441504478455,
        -0.9997713565826416,
        -0.9999778270721436
      ],
      "type": "VEC3"
    },
    {
      "bufferView": 1,
      "byteOffset": 44008,
      "componentType": 5126,
      "count": 18964,
      "max": [
        0.9812719821929932,
        0.9747849702835083
      ],
      "min": [
        0.013434999622404575,
        0.006645000074058771
      ],
      "type": "VEC2"
    },
    {
      "bufferView": 0,
      "byteOffset": 42336,
      "componentType": 5125,
      "count": 105204,
      "type": "SCALAR"
    },
    {
      "bufferView": 2,
      "byteOffset": 587160,
      "componentType": 5126,
      "count": 320,
      "max": [
        91.71463775634766,
        1.2467988729476929,
        42.73386001586914
      ],
      "min": [
        75.04141235351563,
        -17.093469619750977,
        34.416099548339844
      ],
      "type": "VEC3"
    },
    {
      "bufferView": 2,
      "byteOffset": 591000,
      "componentType": 5126,
      "count": 320,
      "max": [
        0.9909560680389404,
        0.9905374050140381,
        0.9444276094436646
      ],
      "min": [
        -0.5890364050865173,
        -0.9999959468841553,
        -0.9936115145683289
      ],
      "type": "VEC3"
    },
    {
      "bufferView": 1,
      "byteOffset": 195720,
      "componentType": 5126,
      "count": 320,
      "max": [
        1.0,
        1.0
      ],
      "min": [
        0.0,
        0.0
      ],
      "type": "VEC2"
    },
    {
      "bufferView": 0,
      "byteOffset": 463152,
      "componentType": 5125,
      "count": 576,
      "type": "SCALAR"
    }
  ],
  "asset": {
    "extras": {
      "author": "Stephengury (https://sketchfab.com/Stephengury)",
      "license": "CC-BY-4.0 (http://creativecommons.org/licenses/by/4.0/)",
      "source": "https://sketchfab.com/3d-models/dog-2d956f35ff1e4fc4910276397f774991",
      "title": "Dog"
    },
    "generator": "Sketchfab-15.27.0",
    "version": "2.0"
  },
  "bufferViews": [
    {
      "buffer": 0,
      "byteLength": 465456,
      "name": "floatBufferViews",
      "target": 34963
    },
    {
      "buffer": 0,
      "byteLength": 198280,
      "byteOffset": 465456,
      "byteStride": 8,
      "name": "floatBufferViews",
      "target": 34962
    },
    {
      "buffer": 0,
      "byteLength": 594840,
      "byteOffset": 663736,
      "byteStride": 12,
      "name": "floatBufferViews",
      "target": 34962
    }
  ],
  "buffers": [
    {
      "byteLength": 1258576,
      "uri": "scene.bin"
    }
  ],
  "extensionsRequired": [
    "KHR_materials_pbrSpecularGlossiness"
  ],
  "extensionsUsed": [
    "KHR_materials_pbrSpecularGlossiness"
  ],
  "images": [
    {
      "uri": "textures/dog1_diffuse.jpeg"
    },
    {
      "uri": "textures/dog2_diffuse.jpeg"
    },
    {
      "uri": "textures/dog3_diffuse.jpeg"
    }
  ],
  "materials": [
    {
      "doubleSided": true,
      "extensions": {
        "KHR_materials_pbrSpecularGlossiness": {
          "diffuseFactor": [
            0.8,
            0.8,
            0.8,
            1.0
          ],
          "diffuseTexture": {
            "index": 0
          },
          "glossinessFactor": 0.4,
          "specularFactor": [
            0.0,
            0.0,
            0.0
          ]
        }
      },
      "name": "dog1"
    },
    {
      "doubleSided": true,
      "extensions": {
        "KHR_materials_pbrSpecularGlossiness": {
          "diffuseFactor": [
            0.8,
            0.8,
            0.8,
            1.0
          ],
          "diffuseTexture": {
            "index": 1
          },
          "glossinessFactor": 0.0,
          "specularFactor": [
            0.0,
            0.0,
            0.0
          ]
        }
      },
      "name": "dog2"
    },
    {
      "doubleSided": true,
      "extensions": {
        "KHR_materials_pbrSpecularGlossiness": {
          "diffuseFactor": [
            1.0,
            1.0,
            1.0,
            1.0
          ],
          "diffuseTexture": {
            "index": 2
          },
          "glossinessFactor": 0.4,
          "specularFactor": [
            0.0,
            0.0,
            0.0
          ]
        }
      },
      "name": "dog3"
    }
  ],
  "meshes": [
    {
      "name": "dog_dog1_0",
      "primitives": [
        {
          "attributes": {
            "NORMAL": 1,
            "POSITION": 0,
            "TEXCOORD_0": 2
          },
          "indices": 3,
          "material": 0,
          "mode": 4
        }
      ]
    },
    {
      "name": "dog_dog2_0",
      "primitives": [
        {
          "attributes": {
            "NORMAL": 5,
            "POSITION": 4,
            "TEXCOORD_0": 6
          },
          "indices": 7,
          "material": 1,
          "mode": 4
        }
      ]
    },
    {
      "name": "dog_dog3_0",
      "primitives": [
        {
          "attributes": {
            "NORMAL": 9,
            "POSITION": 8,
            "TEXCOORD_0": 10
          },
          "indices": 11,
          "material": 2,
          "mode": 4
        }
      ]
    }
  ],
  "nodes": [
    {
      "children": [
        1
      ],
      "matrix": [
        1.0,
        0.0,
        0.0,
        0.0,
        0.0,
        2.220446049250313e-16,
        -1.0,
        0.0,
        0.0,
        1.0,
        2.220446049250313e-16,
        0.0,
        0.0,
        0.0,
        0.0,
        1.0
      ],
      "name": "Sketchfab_model"
    },
    {
      "children": [
        2
      ],
      "matrix": [
        0.0010000000474974513,
        0.0,
        0.0,
        0.0,
        0.0,
        0.0,
        0.0010000000474974513,
        0.0,
        0.0,
        -0.0010000000474974513,
        0.0,
        0.0,
        0.0,
        0.0,
        0.0,
        1.0
      ],
      "name": "dog.FBX"
    },
    {
      "children": [
        3,
        7
      ],
      "name": "RootNode"
    },
    {
      "children": [
        4,
        5,
        6
      ],
      "matrix": [
        -0.11833301060162084,
        -2.0554955148465007e-17,
        0.142390562563083,
        0.0,
        0.142390562563083,
        -4.1109910296930014e-17,
        0.11833301060162085,
        0.0,
        0.0,
        0.18514257669448853,
        4.1109910296930014e-17,
        0.0,
        -1.15570068359375,
        18.56239891052246,
        -3.53326416015625,
        1.0
      ],
      "name": "dog"
    },
    {
      "mesh": 0,
      "name": "dog_dog1_0"
    },
    {
      "mesh": 1,
      "name": "dog_dog2_0"
    },
    {
      "mesh": 2,
      "name": "dog_dog3_0"
    },
    {
      "children": [
        8
      ],
      "matrix": [
        0.9999877264464964,
        -3.033749245825652e-19,
        0.004954488507115465,
        0.0,
        3.033749245825652e-19,
        1.0,
        7.5153840062009355e-22,
        0.0,
        -0.004954488507115465,
        7.515384006180166e-22,
        0.9999877264464964,
        0.0,
        -1.732450246810913,
        21.25464630126953,
        85.53038024902344,
        1.0
      ],
      "name": "Camera001"
    },
    {
      "name": "Object_8"
    }
  ],
  "samplers": [
    {
      "magFilter": 9729,
      "minFilter": 9987,
      "wrapS": 10497,
      "wrapT": 10497
    }
  ],
  "scene": 0,
  "scenes": [
    {
      "name": "Sketchfab_Scene",
      "nodes": [
        0
      ]
    }
  ],
  "textures": [
    {
      "sampler": 0,
      "source": 0
    },
    {
      "sampler": 0,
      "source": 1
    },
    {
      "sampler": 0,
      "source": 2
    }
  ]
}
